<?xml version="1.0" encoding="UTF-8" standalone="no"?>
<!-- Generator: Adobe Illustrator 18.0.0, SVG Export Plug-In . SVG Version: 6.00 Build 0)  -->

<svg
   xmlns:dc="http://purl.org/dc/elements/1.1/"
   xmlns:cc="http://creativecommons.org/ns#"
   xmlns:rdf="http://www.w3.org/1999/02/22-rdf-syntax-ns#"
   xmlns:svg="http://www.w3.org/2000/svg"
   xmlns="http://www.w3.org/2000/svg"
   xmlns:sodipodi="http://sodipodi.sourceforge.net/DTD/sodipodi-0.dtd"
   xmlns:inkscape="http://www.inkscape.org/namespaces/inkscape"
   version="1.1"
   id="Capa_1"
   x="0px"
   y="0px"
   viewBox="0 0 43 56"
   xml:space="preserve"
   inkscape:version="0.91 r13725"
   sodipodi:docname="pdf_icon.svg"
   width="43"
   height="56"><metadata
     id="metadata3470"><rdf:RDF><cc:Work
         rdf:about=""><dc:format>image/svg+xml</dc:format><dc:type
           rdf:resource="http://purl.org/dc/dcmitype/StillImage" /><dc:title></dc:title></cc:Work></rdf:RDF></metadata><defs
     id="defs3468" /><sodipodi:namedview
     pagecolor="#ffffff"
     bordercolor="#666666"
     borderopacity="1"
     objecttolerance="10"
     gridtolerance="10"
     guidetolerance="10"
     inkscape:pageopacity="0"
     inkscape:pageshadow="2"
     inkscape:window-width="1536"
     inkscape:window-height="801"
     id="namedview3466"
     showgrid="false"
     fit-margin-top="0"
     fit-margin-left="0"
     fit-margin-right="0"
     fit-margin-bottom="0"
     inkscape:zoom="4.2142857"
     inkscape:cx="21.5"
     inkscape:cy="28"
     inkscape:window-x="-8"
     inkscape:window-y="-8"
     inkscape:window-maximized="1"
     inkscape:current-layer="Capa_1" /><g
     id="g3418"
     transform="translate(-6.5,0)"><path
       style="fill:#e9e9e0"
       d="M 36.985,0 7.963,0 C 7.155,0 6.5,0.655 6.5,1.926 L 6.5,55 c 0,0.345 0.655,1 1.463,1 l 40.074,0 c 0.808,0 1.463,-0.655 1.463,-1 l 0,-42.022 c 0,-0.696 -0.093,-0.92 -0.257,-1.085 L 37.607,0.257 C 37.442,0.093 37.218,0 36.985,0 Z"
       id="path3420"
       inkscape:connector-curvature="0" /><polygon
       style="fill:#d9d7ca"
       points="37.5,0.151 37.5,12 49.349,12 "
       id="polygon3422" /><path
       style="fill:#cc4b4c"
       d="m 19.514,33.324 0,0 c -0.348,0 -0.682,-0.113 -0.967,-0.326 -1.041,-0.781 -1.181,-1.65 -1.115,-2.242 0.182,-1.628 2.195,-3.332 5.985,-5.068 1.504,-3.296 2.935,-7.357 3.788,-10.75 -0.998,-2.172 -1.968,-4.99 -1.261,-6.643 0.248,-0.579 0.557,-1.023 1.134,-1.215 0.228,-0.076 0.804,-0.172 1.016,-0.172 0.504,0 0.947,0.649 1.261,1.049 0.295,0.376 0.964,1.173 -0.373,6.802 1.348,2.784 3.258,5.62 5.088,7.562 1.311,-0.237 2.439,-0.358 3.358,-0.358 1.566,0 2.515,0.365 2.902,1.117 0.32,0.622 0.189,1.349 -0.39,2.16 -0.557,0.779 -1.325,1.191 -2.22,1.191 -1.216,0 -2.632,-0.768 -4.211,-2.285 -2.837,0.593 -6.15,1.651 -8.828,2.822 -0.836,1.774 -1.637,3.203 -2.383,4.251 -1.025,1.435 -1.909,2.105 -2.784,2.105 z m 2.662,-5.126 c -2.137,1.201 -3.008,2.188 -3.071,2.744 -0.01,0.092 -0.037,0.334 0.431,0.692 0.149,-0.047 1.019,-0.444 2.64,-3.436 z m 13.637,-4.442 c 0.815,0.627 1.014,0.944 1.547,0.944 0.234,0 0.901,-0.01 1.21,-0.441 0.149,-0.209 0.207,-0.343 0.23,-0.415 -0.123,-0.065 -0.286,-0.197 -1.175,-0.197 -0.505,0.001 -1.14,0.023 -1.812,0.109 z m -7.47,-6.582 c -0.715,2.474 -1.659,5.145 -2.674,7.564 2.09,-0.811 4.362,-1.519 6.496,-2.02 -1.35,-1.568 -2.699,-3.526 -3.822,-5.544 z M 27.736,8.712 c -0.098,0.033 -1.33,1.757 0.096,3.216 0.949,-2.115 -0.053,-3.23 -0.096,-3.216 z"
       id="path3424"
       inkscape:connector-curvature="0" /><path
       style="fill:#cc4b4c"
       d="M 48.037,56 7.963,56 C 7.155,56 6.5,55.345 6.5,54.537 L 6.5,39 l 43,0 0,15.537 C 49.5,55.345 48.845,56 48.037,56 Z"
       id="path3426"
       inkscape:connector-curvature="0" /><g
       id="g3428"><path
         style="fill:#ffffff"
         d="m 17.385,53 -1.641,0 0,-10.076 2.898,0 c 0.428,0 0.852,0.068 1.271,0.205 0.419,0.137 0.795,0.342 1.128,0.615 0.333,0.273 0.602,0.604 0.807,0.991 0.205,0.387 0.308,0.822 0.308,1.306 0,0.511 -0.087,0.973 -0.26,1.388 -0.173,0.415 -0.415,0.764 -0.725,1.046 -0.31,0.282 -0.684,0.501 -1.121,0.656 -0.437,0.155 -0.921,0.232 -1.449,0.232 l -1.217,0 0,3.637 z m 0,-8.832 0,3.992 1.504,0 c 0.2,0 0.398,-0.034 0.595,-0.103 0.196,-0.068 0.376,-0.18 0.54,-0.335 0.164,-0.155 0.296,-0.371 0.396,-0.649 0.1,-0.278 0.15,-0.622 0.15,-1.032 0,-0.164 -0.023,-0.354 -0.068,-0.567 -0.046,-0.214 -0.139,-0.419 -0.28,-0.615 -0.142,-0.196 -0.34,-0.36 -0.595,-0.492 -0.255,-0.132 -0.593,-0.198 -1.012,-0.198 l -1.23,0 z"
         id="path3430"
         inkscape:connector-curvature="0" /><path
         style="fill:#ffffff"
         d="m 32.219,47.682 c 0,0.829 -0.089,1.538 -0.267,2.126 -0.178,0.588 -0.403,1.08 -0.677,1.477 -0.274,0.397 -0.581,0.709 -0.923,0.937 -0.342,0.228 -0.672,0.398 -0.991,0.513 -0.319,0.114 -0.611,0.187 -0.875,0.219 C 28.222,52.984 28.026,53 27.898,53 l -3.814,0 0,-10.076 3.035,0 c 0.848,0 1.593,0.135 2.235,0.403 0.642,0.268 1.176,0.627 1.6,1.073 0.424,0.446 0.74,0.955 0.95,1.524 0.21,0.57 0.315,1.156 0.315,1.758 z m -4.867,4.115 c 1.112,0 1.914,-0.355 2.406,-1.066 0.492,-0.711 0.738,-1.741 0.738,-3.09 0,-0.419 -0.05,-0.834 -0.15,-1.244 -0.101,-0.41 -0.294,-0.781 -0.581,-1.114 -0.287,-0.333 -0.677,-0.602 -1.169,-0.807 -0.492,-0.205 -1.13,-0.308 -1.914,-0.308 l -0.957,0 0,7.629 1.627,0 z"
         id="path3432"
         inkscape:connector-curvature="0" /><path
         style="fill:#ffffff"
         d="m 36.266,44.168 0,3.172 4.211,0 0,1.121 -4.211,0 0,4.539 -1.668,0 0,-10.076 6.302,0 0,1.244 -4.634,0 z"
         id="path3434"
         inkscape:connector-curvature="0" /></g></g><g
     id="g3436"
     transform="translate(-6.5,0)" /><g
     id="g3438"
     transform="translate(-6.5,0)" /><g
     id="g3440"
     transform="translate(-6.5,0)" /><g
     id="g3442"
     transform="translate(-6.5,0)" /><g
     id="g3444"
     transform="translate(-6.5,0)" /><g
     id="g3446"
     transform="translate(-6.5,0)" /><g
     id="g3448"
     transform="translate(-6.5,0)" /><g
     id="g3450"
     transform="translate(-6.5,0)" /><g
     id="g3452"
     transform="translate(-6.5,0)" /><g
     id="g3454"
     transform="translate(-6.5,0)" /><g
     id="g3456"
     transform="translate(-6.5,0)" /><g
     id="g3458"
     transform="translate(-6.5,0)" /><g
     id="g3460"
     transform="translate(-6.5,0)" /><g
     id="g3462"
     transform="translate(-6.5,0)" /><g
     id="g3464"
     transform="translate(-6.5,0)" /></svg>