<?xml version="1.0" encoding="UTF-8" standalone="no"?>
<!-- Generator: Adobe Illustrator 18.0.0, SVG Export Plug-In . SVG Version: 6.00 Build 0)  -->

<svg
   xmlns:dc="http://purl.org/dc/elements/1.1/"
   xmlns:cc="http://creativecommons.org/ns#"
   xmlns:rdf="http://www.w3.org/1999/02/22-rdf-syntax-ns#"
   xmlns:svg="http://www.w3.org/2000/svg"
   xmlns="http://www.w3.org/2000/svg"
   xmlns:sodipodi="http://sodipodi.sourceforge.net/DTD/sodipodi-0.dtd"
   xmlns:inkscape="http://www.inkscape.org/namespaces/inkscape"
   version="1.1"
   id="Capa_1"
   x="0px"
   y="0px"
   viewBox="0 0 43 56"
   xml:space="preserve"
   inkscape:version="0.91 r13725"
   sodipodi:docname="ppt_icon.svg"
   width="43"
   height="56"><metadata
     id="metadata63"><rdf:RDF><cc:Work
         rdf:about=""><dc:format>image/svg+xml</dc:format><dc:type
           rdf:resource="http://purl.org/dc/dcmitype/StillImage" /><dc:title></dc:title></cc:Work></rdf:RDF></metadata><defs
     id="defs61" /><sodipodi:namedview
     pagecolor="#ffffff"
     bordercolor="#666666"
     borderopacity="1"
     objecttolerance="10"
     gridtolerance="10"
     guidetolerance="10"
     inkscape:pageopacity="0"
     inkscape:pageshadow="2"
     inkscape:window-width="640"
     inkscape:window-height="480"
     id="namedview59"
     showgrid="false"
     fit-margin-top="0"
     fit-margin-left="0"
     fit-margin-right="0"
     fit-margin-bottom="0"
     inkscape:zoom="4.2142857"
     inkscape:cx="21.5"
     inkscape:cy="28"
     inkscape:window-x="242"
     inkscape:window-y="67"
     inkscape:window-maximized="0"
     inkscape:current-layer="Capa_1" /><g
     id="g3"
     transform="translate(-6.5,0)"><path
       style="fill:#e9e9e0"
       d="M 36.985,0 7.963,0 C 7.155,0 6.5,0.655 6.5,1.926 L 6.5,55 c 0,0.345 0.655,1 1.463,1 l 40.074,0 c 0.808,0 1.463,-0.655 1.463,-1 l 0,-42.022 c 0,-0.696 -0.093,-0.92 -0.257,-1.085 L 37.607,0.257 C 37.442,0.093 37.218,0 36.985,0 Z"
       id="path5"
       inkscape:connector-curvature="0" /><polygon
       style="fill:#d9d7ca"
       points="37.5,0.151 37.5,12 49.349,12 "
       id="polygon7" /><path
       style="fill:#f6712e"
       d="M 48.037,56 7.963,56 C 7.155,56 6.5,55.345 6.5,54.537 L 6.5,39 l 43,0 0,15.537 C 49.5,55.345 48.845,56 48.037,56 Z"
       id="path9"
       inkscape:connector-curvature="0" /><g
       id="g11"><path
         style="fill:#ffffff"
         d="m 17.581,53 -1.641,0 0,-10.076 2.898,0 c 0.428,0 0.852,0.068 1.271,0.205 0.419,0.137 0.795,0.342 1.128,0.615 0.333,0.273 0.602,0.604 0.807,0.991 0.205,0.387 0.308,0.822 0.308,1.306 0,0.511 -0.087,0.973 -0.26,1.388 -0.173,0.415 -0.415,0.764 -0.725,1.046 -0.31,0.282 -0.684,0.501 -1.121,0.656 -0.437,0.155 -0.921,0.232 -1.449,0.232 l -1.217,0 0,3.637 z m 0,-8.832 0,3.992 1.504,0 c 0.2,0 0.398,-0.034 0.595,-0.103 0.196,-0.068 0.376,-0.18 0.54,-0.335 0.164,-0.155 0.296,-0.371 0.396,-0.649 0.1,-0.278 0.15,-0.622 0.15,-1.032 0,-0.164 -0.023,-0.354 -0.068,-0.567 -0.046,-0.214 -0.139,-0.419 -0.28,-0.615 -0.142,-0.196 -0.34,-0.36 -0.595,-0.492 -0.255,-0.132 -0.593,-0.198 -1.012,-0.198 l -1.23,0 z"
         id="path13"
         inkscape:connector-curvature="0" /><path
         style="fill:#ffffff"
         d="m 25.853,53 -1.641,0 0,-10.076 2.898,0 c 0.428,0 0.852,0.068 1.271,0.205 0.419,0.137 0.795,0.342 1.128,0.615 0.333,0.273 0.602,0.604 0.807,0.991 0.205,0.387 0.308,0.822 0.308,1.306 0,0.511 -0.087,0.973 -0.26,1.388 -0.173,0.415 -0.415,0.764 -0.725,1.046 -0.31,0.282 -0.684,0.501 -1.121,0.656 -0.437,0.155 -0.921,0.232 -1.449,0.232 l -1.217,0 0,3.637 z m 0,-8.832 0,3.992 1.504,0 c 0.2,0 0.398,-0.034 0.595,-0.103 0.196,-0.068 0.376,-0.18 0.54,-0.335 0.164,-0.155 0.296,-0.371 0.396,-0.649 0.1,-0.278 0.15,-0.622 0.15,-1.032 0,-0.164 -0.023,-0.354 -0.068,-0.567 -0.046,-0.214 -0.139,-0.419 -0.28,-0.615 -0.142,-0.196 -0.34,-0.36 -0.595,-0.492 -0.255,-0.132 -0.593,-0.198 -1.012,-0.198 l -1.23,0 z"
         id="path15"
         inkscape:connector-curvature="0" /><path
         style="fill:#ffffff"
         d="m 39.606,42.924 0,1.121 -3.008,0 0,8.955 -1.654,0 0,-8.955 -3.008,0 0,-1.121 7.67,0 z"
         id="path17"
         inkscape:connector-curvature="0" /></g><path
       style="fill:#c8bdb8"
       d="m 39.5,30 -24,0 0,-16 24,0 0,16 z m -22,-2 20,0 0,-12 -20,0 0,12 z"
       id="path19"
       inkscape:connector-curvature="0" /><path
       style="fill:#c8bdb8"
       d="m 20.499,35 c -0.175,0 -0.353,-0.046 -0.514,-0.143 -0.474,-0.284 -0.627,-0.898 -0.343,-1.372 l 3,-5 c 0.284,-0.474 0.898,-0.627 1.372,-0.343 0.474,0.284 0.627,0.898 0.343,1.372 l -3,5 C 21.17,34.827 20.839,35 20.499,35 Z"
       id="path21"
       inkscape:connector-curvature="0" /><path
       style="fill:#c8bdb8"
       d="m 34.501,35 c -0.34,0 -0.671,-0.173 -0.858,-0.485 l -3,-5 c -0.284,-0.474 -0.131,-1.088 0.343,-1.372 0.474,-0.283 1.088,-0.131 1.372,0.343 l 3,5 c 0.284,0.474 0.131,1.088 -0.343,1.372 C 34.854,34.954 34.676,35 34.501,35 Z"
       id="path23"
       inkscape:connector-curvature="0" /><path
       style="fill:#c8bdb8"
       d="m 27.5,16 c -0.552,0 -1,-0.447 -1,-1 l 0,-3 c 0,-0.553 0.448,-1 1,-1 0.552,0 1,0.447 1,1 l 0,3 c 0,0.553 -0.448,1 -1,1 z"
       id="path25"
       inkscape:connector-curvature="0" /><rect
       x="17.5"
       y="16"
       style="fill:#d3ccc9"
       width="20"
       height="12"
       id="rect27" /></g><g
     id="g29"
     transform="translate(-6.5,0)" /><g
     id="g31"
     transform="translate(-6.5,0)" /><g
     id="g33"
     transform="translate(-6.5,0)" /><g
     id="g35"
     transform="translate(-6.5,0)" /><g
     id="g37"
     transform="translate(-6.5,0)" /><g
     id="g39"
     transform="translate(-6.5,0)" /><g
     id="g41"
     transform="translate(-6.5,0)" /><g
     id="g43"
     transform="translate(-6.5,0)" /><g
     id="g45"
     transform="translate(-6.5,0)" /><g
     id="g47"
     transform="translate(-6.5,0)" /><g
     id="g49"
     transform="translate(-6.5,0)" /><g
     id="g51"
     transform="translate(-6.5,0)" /><g
     id="g53"
     transform="translate(-6.5,0)" /><g
     id="g55"
     transform="translate(-6.5,0)" /><g
     id="g57"
     transform="translate(-6.5,0)" /></svg>